<mxfile host="Electron" modified="2024-05-21T01:45:52.554Z" agent="Mozilla/5.0 (Windows NT 10.0; Win64; x64) AppleWebKit/537.36 (KHTML, like Gecko) draw.io/24.4.0 Chrome/120.0.6099.109 Electron/28.1.0 Safari/537.36" etag="CvS_C9MXyXGZVdBcdkkm" version="24.4.0" type="device">
  <diagram name="Page-1" id="KZN-zyBD-0XipZeYQRDT">
    <mxGraphModel dx="572" dy="331" grid="1" gridSize="10" guides="1" tooltips="1" connect="1" arrows="1" fold="1" page="1" pageScale="1" pageWidth="500" pageHeight="200" math="0" shadow="0">
      <root>
        <mxCell id="0" />
        <mxCell id="1" parent="0" />
        <mxCell id="wEfOMtyTKLQo5fzBktWI-15" value="" style="group" vertex="1" connectable="0" parent="1">
          <mxGeometry x="9" y="78" width="482.6" height="44.45000000000001" as="geometry" />
        </mxCell>
        <mxCell id="9eh16xiQdjSHdPkHuFP6-378" value="" style="rounded=0;whiteSpace=wrap;html=1;strokeColor=#aaaaaa;fillColor=#bfbfbf;strokeWidth=1;container=0;part=1;movable=1;resizable=1;rotatable=1;deletable=1;editable=1;locked=0;connectable=1;" parent="wEfOMtyTKLQo5fzBktWI-15" vertex="1">
          <mxGeometry width="482.6" height="44.45" as="geometry" />
        </mxCell>
        <mxCell id="9eh16xiQdjSHdPkHuFP6-379" value="" style="rounded=0;whiteSpace=wrap;html=1;strokeColor=#aaaaaa;fillColor=#222222;strokeWidth=1;movable=1;resizable=1;rotatable=1;deletable=1;editable=1;locked=0;connectable=1;container=0;" parent="wEfOMtyTKLQo5fzBktWI-15" vertex="1">
          <mxGeometry x="18" width="446.6" height="44.45" as="geometry" />
        </mxCell>
        <mxCell id="jP2WbbBxQBNUkDRbYnSl-230" value="" style="group" parent="wEfOMtyTKLQo5fzBktWI-15" vertex="1" connectable="0">
          <mxGeometry x="4" y="19.225" width="10" height="6" as="geometry" />
        </mxCell>
        <mxCell id="jP2WbbBxQBNUkDRbYnSl-231" value="" style="rounded=0;whiteSpace=wrap;html=1;fillColor=#000000;fontColor=#ffffff;strokeColor=none;container=0;" parent="jP2WbbBxQBNUkDRbYnSl-230" vertex="1">
          <mxGeometry x="3" width="4" height="6" as="geometry" />
        </mxCell>
        <mxCell id="jP2WbbBxQBNUkDRbYnSl-232" value="" style="ellipse;whiteSpace=wrap;html=1;aspect=fixed;strokeColor=none;fillColor=#000000;" parent="jP2WbbBxQBNUkDRbYnSl-230" vertex="1">
          <mxGeometry x="4" width="6" height="6" as="geometry" />
        </mxCell>
        <mxCell id="jP2WbbBxQBNUkDRbYnSl-233" value="" style="ellipse;whiteSpace=wrap;html=1;aspect=fixed;strokeColor=none;fillColor=#000000;" parent="jP2WbbBxQBNUkDRbYnSl-230" vertex="1">
          <mxGeometry width="6" height="6" as="geometry" />
        </mxCell>
        <mxCell id="jP2WbbBxQBNUkDRbYnSl-206" value="" style="rounded=0;whiteSpace=wrap;html=1;strokeColor=#aaaaaa;fillColor=#bfbfbf;strokeWidth=1;movable=1;resizable=1;rotatable=1;deletable=1;editable=1;locked=0;connectable=1;container=0;" parent="wEfOMtyTKLQo5fzBktWI-15" vertex="1">
          <mxGeometry x="7.996249999999999" y="7.105427357601002e-15" width="10" height="44.45" as="geometry" />
        </mxCell>
        <mxCell id="wEfOMtyTKLQo5fzBktWI-1" value="" style="group" vertex="1" connectable="0" parent="wEfOMtyTKLQo5fzBktWI-15">
          <mxGeometry x="468.59625000000017" y="19.225" width="10" height="6" as="geometry" />
        </mxCell>
        <mxCell id="wEfOMtyTKLQo5fzBktWI-2" value="" style="rounded=0;whiteSpace=wrap;html=1;fillColor=#000000;fontColor=#ffffff;strokeColor=none;container=0;" vertex="1" parent="wEfOMtyTKLQo5fzBktWI-1">
          <mxGeometry x="3" width="4" height="6" as="geometry" />
        </mxCell>
        <mxCell id="wEfOMtyTKLQo5fzBktWI-3" value="" style="ellipse;whiteSpace=wrap;html=1;aspect=fixed;strokeColor=none;fillColor=#000000;" vertex="1" parent="wEfOMtyTKLQo5fzBktWI-1">
          <mxGeometry x="4" width="6" height="6" as="geometry" />
        </mxCell>
        <mxCell id="wEfOMtyTKLQo5fzBktWI-4" value="" style="ellipse;whiteSpace=wrap;html=1;aspect=fixed;strokeColor=none;fillColor=#000000;" vertex="1" parent="wEfOMtyTKLQo5fzBktWI-1">
          <mxGeometry width="6" height="6" as="geometry" />
        </mxCell>
        <mxCell id="wEfOMtyTKLQo5fzBktWI-5" value="" style="rounded=0;whiteSpace=wrap;html=1;strokeColor=#aaaaaa;fillColor=#bfbfbf;strokeWidth=1;movable=1;resizable=1;rotatable=1;deletable=1;editable=1;locked=0;connectable=1;container=0;" vertex="1" parent="wEfOMtyTKLQo5fzBktWI-15">
          <mxGeometry x="464.60000000000014" y="7.105427357601002e-15" width="10" height="44.45" as="geometry" />
        </mxCell>
        <mxCell id="wEfOMtyTKLQo5fzBktWI-7" value="" style="group;" vertex="1" connectable="0" parent="wEfOMtyTKLQo5fzBktWI-15">
          <mxGeometry x="19.83" y="17.5" width="442.95" height="26.179245283018872" as="geometry" />
        </mxCell>
        <mxCell id="jP2WbbBxQBNUkDRbYnSl-509" value="" style="rounded=0;whiteSpace=wrap;html=1;strokeColor=none;fillColor=#333333;strokeWidth=0.5;movable=1;resizable=1;rotatable=1;deletable=1;editable=1;locked=0;connectable=1;container=0;" parent="wEfOMtyTKLQo5fzBktWI-7" vertex="1">
          <mxGeometry width="109.95212765957447" height="26.179245283018872" as="geometry" />
        </mxCell>
        <mxCell id="jP2WbbBxQBNUkDRbYnSl-510" value="" style="rounded=0;whiteSpace=wrap;html=1;strokeColor=#222222;fillColor=#222222;strokeWidth=0.5;movable=1;resizable=1;rotatable=1;deletable=1;editable=1;locked=0;connectable=1;container=0;" parent="wEfOMtyTKLQo5fzBktWI-7" vertex="1">
          <mxGeometry x="3.141489361702128" y="3.1415094339622627" width="101.57482269503546" height="19.89622641509434" as="geometry" />
        </mxCell>
        <mxCell id="jP2WbbBxQBNUkDRbYnSl-511" value="" style="rounded=1;whiteSpace=wrap;html=1;strokeColor=#222222;rotation=0;fillColor=#60a917;fontColor=#ffffff;movable=1;resizable=1;rotatable=1;deletable=1;editable=1;locked=0;connectable=1;container=0;direction=south;strokeWidth=0.1;" parent="wEfOMtyTKLQo5fzBktWI-7" vertex="1">
          <mxGeometry x="105.76347517730497" y="20.943396226415096" width="3.141489361702128" height="4.188679245283019" as="geometry" />
        </mxCell>
        <mxCell id="jP2WbbBxQBNUkDRbYnSl-512" value="" style="rounded=1;whiteSpace=wrap;html=1;strokeColor=#222222;rotation=0;fillColor=#0050ef;fontColor=#ffffff;movable=1;resizable=1;rotatable=1;deletable=1;editable=1;locked=0;connectable=1;container=0;direction=south;strokeWidth=0.1;" parent="wEfOMtyTKLQo5fzBktWI-7" vertex="1">
          <mxGeometry x="105.76347517730497" y="11.518867924528301" width="3.141489361702128" height="4.188679245283019" as="geometry" />
        </mxCell>
        <mxCell id="jP2WbbBxQBNUkDRbYnSl-513" value="" style="rounded=1;whiteSpace=wrap;html=1;strokeColor=none;fillColor=#0050ef;strokeWidth=0.5;fontColor=#ffffff;glass=0;movable=1;resizable=1;rotatable=1;deletable=1;editable=1;locked=0;connectable=1;container=0;" parent="wEfOMtyTKLQo5fzBktWI-7" vertex="1">
          <mxGeometry x="78.5372340425532" y="6.283018867924529" width="8.377304964539007" height="13.613207547169813" as="geometry" />
        </mxCell>
        <mxCell id="jP2WbbBxQBNUkDRbYnSl-514" value="" style="shape=or;whiteSpace=wrap;html=1;fillColor=#0050ef;fontColor=#ffffff;strokeColor=none;movable=1;resizable=1;rotatable=1;deletable=1;editable=1;locked=0;connectable=1;container=0;" parent="wEfOMtyTKLQo5fzBktWI-7" vertex="1">
          <mxGeometry x="85.86737588652483" y="6.283018867924529" width="3.141489361702128" height="13.613207547169813" as="geometry" />
        </mxCell>
        <mxCell id="jP2WbbBxQBNUkDRbYnSl-515" value="" style="sketch=0;html=1;strokeColor=#222222;shadow=0;fillColor=none;verticalAlign=top;labelPosition=center;verticalLabelPosition=bottom;shape=mxgraph.gcp2.a7_power;gradientColor=none;strokeWidth=0.1;movable=1;resizable=1;rotatable=1;deletable=1;editable=1;locked=0;connectable=1;container=0;" parent="wEfOMtyTKLQo5fzBktWI-7" vertex="1">
          <mxGeometry x="105.76347517730497" y="7.330188679245282" width="3.141489361702128" height="3.1415094339622645" as="geometry" />
        </mxCell>
        <mxCell id="jP2WbbBxQBNUkDRbYnSl-516" value="" style="strokeWidth=0.1;html=1;shape=mxgraph.flowchart.database;whiteSpace=wrap;strokeColor=#222222;fillColor=none;movable=1;resizable=1;rotatable=1;deletable=1;editable=1;locked=0;connectable=1;container=0;" parent="wEfOMtyTKLQo5fzBktWI-7" vertex="1">
          <mxGeometry x="105.76347517730497" y="16.754716981132077" width="3.141489361702128" height="3.1415094339622645" as="geometry" />
        </mxCell>
        <mxCell id="jP2WbbBxQBNUkDRbYnSl-517" value="" style="rounded=0;whiteSpace=wrap;html=1;strokeColor=none;fillColor=#333333;strokeWidth=0.5;movable=1;resizable=1;rotatable=1;deletable=1;editable=1;locked=0;connectable=1;container=0;" parent="wEfOMtyTKLQo5fzBktWI-7" vertex="1">
          <mxGeometry x="3.141489361702128" y="3.1415094339622627" width="80.63156028368795" height="19.89622641509434" as="geometry" />
        </mxCell>
        <mxCell id="jP2WbbBxQBNUkDRbYnSl-518" value="" style="rounded=0;whiteSpace=wrap;html=1;strokeColor=none;fillColor=#2D2D2D;strokeWidth=0.2;movable=1;resizable=1;rotatable=1;deletable=1;editable=1;locked=0;connectable=1;container=0;" parent="wEfOMtyTKLQo5fzBktWI-7" vertex="1">
          <mxGeometry x="69.11276595744681" y="5.759433962264151" width="4.188652482269504" height="14.660377358490567" as="geometry" />
        </mxCell>
        <mxCell id="jP2WbbBxQBNUkDRbYnSl-519" value="" style="rounded=0;whiteSpace=wrap;html=1;strokeColor=none;fillColor=#2D2D2D;strokeWidth=0.2;movable=1;resizable=1;rotatable=1;deletable=1;editable=1;locked=0;connectable=1;container=0;" parent="wEfOMtyTKLQo5fzBktWI-7" vertex="1">
          <mxGeometry x="9.424468085106383" y="5.759433962264151" width="4.188652482269504" height="14.660377358490567" as="geometry" />
        </mxCell>
        <mxCell id="jP2WbbBxQBNUkDRbYnSl-520" value="" style="rounded=0;whiteSpace=wrap;html=1;strokeColor=none;fillColor=#222222;strokeWidth=0.2;movable=1;resizable=1;rotatable=1;deletable=1;editable=1;locked=0;connectable=1;container=0;" parent="wEfOMtyTKLQo5fzBktWI-7" vertex="1">
          <mxGeometry x="13.613120567375887" y="5.759433962264151" width="55.499645390070924" height="2.0943396226415096" as="geometry" />
        </mxCell>
        <mxCell id="jP2WbbBxQBNUkDRbYnSl-521" value="" style="rounded=0;whiteSpace=wrap;html=1;strokeColor=none;fillColor=#222222;strokeWidth=0.2;movable=1;resizable=1;rotatable=1;deletable=1;editable=1;locked=0;connectable=1;container=0;" parent="wEfOMtyTKLQo5fzBktWI-7" vertex="1">
          <mxGeometry x="13.613120567375887" y="9.94811320754717" width="55.499645390070924" height="2.0943396226415096" as="geometry" />
        </mxCell>
        <mxCell id="jP2WbbBxQBNUkDRbYnSl-522" value="" style="rounded=0;whiteSpace=wrap;html=1;strokeColor=none;fillColor=#222222;strokeWidth=0.2;movable=1;resizable=1;rotatable=1;deletable=1;editable=1;locked=0;connectable=1;container=0;" parent="wEfOMtyTKLQo5fzBktWI-7" vertex="1">
          <mxGeometry x="13.613120567375887" y="14.136792452830193" width="55.499645390070924" height="2.0943396226415096" as="geometry" />
        </mxCell>
        <mxCell id="jP2WbbBxQBNUkDRbYnSl-523" value="" style="rounded=0;whiteSpace=wrap;html=1;strokeColor=none;fillColor=#222222;strokeWidth=0.2;movable=1;resizable=1;rotatable=1;deletable=1;editable=1;locked=0;connectable=1;container=0;" parent="wEfOMtyTKLQo5fzBktWI-7" vertex="1">
          <mxGeometry x="13.613120567375887" y="18.325471698113205" width="55.499645390070924" height="2.0943396226415096" as="geometry" />
        </mxCell>
        <mxCell id="jP2WbbBxQBNUkDRbYnSl-524" value="" style="rounded=0;whiteSpace=wrap;html=1;strokeColor=none;fillColor=#2D2D2D;strokeWidth=0.2;movable=1;resizable=1;rotatable=1;deletable=1;editable=1;locked=0;connectable=1;container=0;" parent="wEfOMtyTKLQo5fzBktWI-7" vertex="1">
          <mxGeometry x="30.367730496453902" y="5.759433962264151" width="2.094326241134752" height="14.660377358490567" as="geometry" />
        </mxCell>
        <mxCell id="jP2WbbBxQBNUkDRbYnSl-525" value="" style="rounded=0;whiteSpace=wrap;html=1;strokeColor=none;fillColor=#2D2D2D;strokeWidth=0.2;movable=1;resizable=1;rotatable=1;deletable=1;editable=1;locked=0;connectable=1;container=0;" parent="wEfOMtyTKLQo5fzBktWI-7" vertex="1">
          <mxGeometry x="50.263829787234044" y="5.759433962264151" width="2.094326241134752" height="14.660377358490567" as="geometry" />
        </mxCell>
        <mxCell id="jP2WbbBxQBNUkDRbYnSl-526" value="" style="rounded=0;whiteSpace=wrap;html=1;strokeColor=none;fillColor=#333333;strokeWidth=0.5;movable=1;resizable=1;rotatable=1;deletable=1;editable=1;locked=0;connectable=1;container=0;" parent="wEfOMtyTKLQo5fzBktWI-7" vertex="1">
          <mxGeometry x="13.613120567375887" y="16.2311320754717" width="55.499645390070924" height="2.0943396226415096" as="geometry" />
        </mxCell>
        <mxCell id="jP2WbbBxQBNUkDRbYnSl-527" value="" style="rounded=0;whiteSpace=wrap;html=1;strokeColor=none;fillColor=#333333;strokeWidth=0.5;movable=1;resizable=1;rotatable=1;deletable=1;editable=1;locked=0;connectable=1;container=0;" parent="wEfOMtyTKLQo5fzBktWI-7" vertex="1">
          <mxGeometry x="13.613120567375887" y="12.04245283018868" width="55.499645390070924" height="2.0943396226415096" as="geometry" />
        </mxCell>
        <mxCell id="jP2WbbBxQBNUkDRbYnSl-528" value="" style="rounded=0;whiteSpace=wrap;html=1;strokeColor=none;fillColor=#333333;strokeWidth=0.5;movable=1;resizable=1;rotatable=1;deletable=1;editable=1;locked=0;connectable=1;container=0;" parent="wEfOMtyTKLQo5fzBktWI-7" vertex="1">
          <mxGeometry x="13.613120567375887" y="7.85377358490566" width="55.499645390070924" height="2.0943396226415096" as="geometry" />
        </mxCell>
        <mxCell id="jP2WbbBxQBNUkDRbYnSl-530" value="" style="rounded=0;whiteSpace=wrap;html=1;strokeColor=none;fillColor=#333333;strokeWidth=0.5;movable=1;resizable=1;rotatable=1;deletable=1;editable=1;locked=0;connectable=1;container=0;" parent="wEfOMtyTKLQo5fzBktWI-7" vertex="1">
          <mxGeometry x="110.99929078014183" width="109.95212765957447" height="26.179245283018872" as="geometry" />
        </mxCell>
        <mxCell id="jP2WbbBxQBNUkDRbYnSl-531" value="" style="rounded=0;whiteSpace=wrap;html=1;strokeColor=#222222;fillColor=#222222;strokeWidth=0.5;movable=1;resizable=1;rotatable=1;deletable=1;editable=1;locked=0;connectable=1;container=0;" parent="wEfOMtyTKLQo5fzBktWI-7" vertex="1">
          <mxGeometry x="114.14078014184399" y="3.1415094339622627" width="101.57482269503546" height="19.89622641509434" as="geometry" />
        </mxCell>
        <mxCell id="jP2WbbBxQBNUkDRbYnSl-532" value="" style="rounded=1;whiteSpace=wrap;html=1;strokeColor=#222222;rotation=0;fillColor=#60a917;fontColor=#ffffff;movable=1;resizable=1;rotatable=1;deletable=1;editable=1;locked=0;connectable=1;container=0;direction=south;strokeWidth=0.1;" parent="wEfOMtyTKLQo5fzBktWI-7" vertex="1">
          <mxGeometry x="216.76276595744685" y="20.943396226415096" width="3.141489361702128" height="4.188679245283019" as="geometry" />
        </mxCell>
        <mxCell id="jP2WbbBxQBNUkDRbYnSl-533" value="" style="rounded=1;whiteSpace=wrap;html=1;strokeColor=#222222;rotation=0;fillColor=#0050ef;fontColor=#ffffff;movable=1;resizable=1;rotatable=1;deletable=1;editable=1;locked=0;connectable=1;container=0;direction=south;strokeWidth=0.1;" parent="wEfOMtyTKLQo5fzBktWI-7" vertex="1">
          <mxGeometry x="216.76276595744685" y="11.518867924528301" width="3.141489361702128" height="4.188679245283019" as="geometry" />
        </mxCell>
        <mxCell id="jP2WbbBxQBNUkDRbYnSl-534" value="" style="rounded=1;whiteSpace=wrap;html=1;strokeColor=none;fillColor=#0050ef;strokeWidth=0.5;fontColor=#ffffff;glass=0;movable=1;resizable=1;rotatable=1;deletable=1;editable=1;locked=0;connectable=1;container=0;" parent="wEfOMtyTKLQo5fzBktWI-7" vertex="1">
          <mxGeometry x="189.53652482269507" y="6.283018867924529" width="8.377304964539007" height="13.613207547169813" as="geometry" />
        </mxCell>
        <mxCell id="jP2WbbBxQBNUkDRbYnSl-535" value="" style="shape=or;whiteSpace=wrap;html=1;fillColor=#0050ef;fontColor=#ffffff;strokeColor=none;movable=1;resizable=1;rotatable=1;deletable=1;editable=1;locked=0;connectable=1;container=0;" parent="wEfOMtyTKLQo5fzBktWI-7" vertex="1">
          <mxGeometry x="196.86666666666667" y="6.283018867924529" width="3.141489361702128" height="13.613207547169813" as="geometry" />
        </mxCell>
        <mxCell id="jP2WbbBxQBNUkDRbYnSl-536" value="" style="sketch=0;html=1;strokeColor=#222222;shadow=0;fillColor=none;verticalAlign=top;labelPosition=center;verticalLabelPosition=bottom;shape=mxgraph.gcp2.a7_power;gradientColor=none;strokeWidth=0.1;movable=1;resizable=1;rotatable=1;deletable=1;editable=1;locked=0;connectable=1;container=0;" parent="wEfOMtyTKLQo5fzBktWI-7" vertex="1">
          <mxGeometry x="216.76276595744685" y="7.330188679245282" width="3.141489361702128" height="3.1415094339622645" as="geometry" />
        </mxCell>
        <mxCell id="jP2WbbBxQBNUkDRbYnSl-537" value="" style="strokeWidth=0.1;html=1;shape=mxgraph.flowchart.database;whiteSpace=wrap;strokeColor=#222222;fillColor=none;movable=1;resizable=1;rotatable=1;deletable=1;editable=1;locked=0;connectable=1;container=0;" parent="wEfOMtyTKLQo5fzBktWI-7" vertex="1">
          <mxGeometry x="216.76276595744685" y="16.754716981132077" width="3.141489361702128" height="3.1415094339622645" as="geometry" />
        </mxCell>
        <mxCell id="jP2WbbBxQBNUkDRbYnSl-538" value="" style="rounded=0;whiteSpace=wrap;html=1;strokeColor=none;fillColor=#333333;strokeWidth=0.5;movable=1;resizable=1;rotatable=1;deletable=1;editable=1;locked=0;connectable=1;container=0;" parent="wEfOMtyTKLQo5fzBktWI-7" vertex="1">
          <mxGeometry x="114.14078014184399" y="3.1415094339622627" width="80.63156028368795" height="19.89622641509434" as="geometry" />
        </mxCell>
        <mxCell id="jP2WbbBxQBNUkDRbYnSl-539" value="" style="rounded=0;whiteSpace=wrap;html=1;strokeColor=none;fillColor=#2D2D2D;strokeWidth=0.2;movable=1;resizable=1;rotatable=1;deletable=1;editable=1;locked=0;connectable=1;container=0;" parent="wEfOMtyTKLQo5fzBktWI-7" vertex="1">
          <mxGeometry x="180.11205673758866" y="5.759433962264151" width="4.188652482269504" height="14.660377358490567" as="geometry" />
        </mxCell>
        <mxCell id="jP2WbbBxQBNUkDRbYnSl-540" value="" style="rounded=0;whiteSpace=wrap;html=1;strokeColor=none;fillColor=#2D2D2D;strokeWidth=0.2;movable=1;resizable=1;rotatable=1;deletable=1;editable=1;locked=0;connectable=1;container=0;" parent="wEfOMtyTKLQo5fzBktWI-7" vertex="1">
          <mxGeometry x="120.42375886524825" y="5.759433962264151" width="4.188652482269504" height="14.660377358490567" as="geometry" />
        </mxCell>
        <mxCell id="jP2WbbBxQBNUkDRbYnSl-541" value="" style="rounded=0;whiteSpace=wrap;html=1;strokeColor=none;fillColor=#222222;strokeWidth=0.2;movable=1;resizable=1;rotatable=1;deletable=1;editable=1;locked=0;connectable=1;container=0;" parent="wEfOMtyTKLQo5fzBktWI-7" vertex="1">
          <mxGeometry x="124.61241134751775" y="5.759433962264151" width="55.499645390070924" height="2.0943396226415096" as="geometry" />
        </mxCell>
        <mxCell id="jP2WbbBxQBNUkDRbYnSl-542" value="" style="rounded=0;whiteSpace=wrap;html=1;strokeColor=none;fillColor=#222222;strokeWidth=0.2;movable=1;resizable=1;rotatable=1;deletable=1;editable=1;locked=0;connectable=1;container=0;" parent="wEfOMtyTKLQo5fzBktWI-7" vertex="1">
          <mxGeometry x="124.61241134751775" y="9.94811320754717" width="55.499645390070924" height="2.0943396226415096" as="geometry" />
        </mxCell>
        <mxCell id="jP2WbbBxQBNUkDRbYnSl-543" value="" style="rounded=0;whiteSpace=wrap;html=1;strokeColor=none;fillColor=#222222;strokeWidth=0.2;movable=1;resizable=1;rotatable=1;deletable=1;editable=1;locked=0;connectable=1;container=0;" parent="wEfOMtyTKLQo5fzBktWI-7" vertex="1">
          <mxGeometry x="124.61241134751775" y="14.136792452830193" width="55.499645390070924" height="2.0943396226415096" as="geometry" />
        </mxCell>
        <mxCell id="jP2WbbBxQBNUkDRbYnSl-544" value="" style="rounded=0;whiteSpace=wrap;html=1;strokeColor=none;fillColor=#222222;strokeWidth=0.2;movable=1;resizable=1;rotatable=1;deletable=1;editable=1;locked=0;connectable=1;container=0;" parent="wEfOMtyTKLQo5fzBktWI-7" vertex="1">
          <mxGeometry x="124.61241134751775" y="18.325471698113205" width="55.499645390070924" height="2.0943396226415096" as="geometry" />
        </mxCell>
        <mxCell id="jP2WbbBxQBNUkDRbYnSl-545" value="" style="rounded=0;whiteSpace=wrap;html=1;strokeColor=none;fillColor=#2D2D2D;strokeWidth=0.2;movable=1;resizable=1;rotatable=1;deletable=1;editable=1;locked=0;connectable=1;container=0;" parent="wEfOMtyTKLQo5fzBktWI-7" vertex="1">
          <mxGeometry x="141.36702127659578" y="5.759433962264151" width="2.094326241134752" height="14.660377358490567" as="geometry" />
        </mxCell>
        <mxCell id="jP2WbbBxQBNUkDRbYnSl-546" value="" style="rounded=0;whiteSpace=wrap;html=1;strokeColor=none;fillColor=#2D2D2D;strokeWidth=0.2;movable=1;resizable=1;rotatable=1;deletable=1;editable=1;locked=0;connectable=1;container=0;" parent="wEfOMtyTKLQo5fzBktWI-7" vertex="1">
          <mxGeometry x="161.2631205673759" y="5.759433962264151" width="2.094326241134752" height="14.660377358490567" as="geometry" />
        </mxCell>
        <mxCell id="jP2WbbBxQBNUkDRbYnSl-547" value="" style="rounded=0;whiteSpace=wrap;html=1;strokeColor=none;fillColor=#333333;strokeWidth=0.5;movable=1;resizable=1;rotatable=1;deletable=1;editable=1;locked=0;connectable=1;container=0;" parent="wEfOMtyTKLQo5fzBktWI-7" vertex="1">
          <mxGeometry x="124.61241134751775" y="16.2311320754717" width="55.499645390070924" height="2.0943396226415096" as="geometry" />
        </mxCell>
        <mxCell id="jP2WbbBxQBNUkDRbYnSl-548" value="" style="rounded=0;whiteSpace=wrap;html=1;strokeColor=none;fillColor=#333333;strokeWidth=0.5;movable=1;resizable=1;rotatable=1;deletable=1;editable=1;locked=0;connectable=1;container=0;" parent="wEfOMtyTKLQo5fzBktWI-7" vertex="1">
          <mxGeometry x="124.61241134751775" y="12.04245283018868" width="55.499645390070924" height="2.0943396226415096" as="geometry" />
        </mxCell>
        <mxCell id="jP2WbbBxQBNUkDRbYnSl-549" value="" style="rounded=0;whiteSpace=wrap;html=1;strokeColor=none;fillColor=#333333;strokeWidth=0.5;movable=1;resizable=1;rotatable=1;deletable=1;editable=1;locked=0;connectable=1;container=0;" parent="wEfOMtyTKLQo5fzBktWI-7" vertex="1">
          <mxGeometry x="124.61241134751775" y="7.85377358490566" width="55.499645390070924" height="2.0943396226415096" as="geometry" />
        </mxCell>
        <mxCell id="jP2WbbBxQBNUkDRbYnSl-551" value="" style="rounded=0;whiteSpace=wrap;html=1;strokeColor=none;fillColor=#333333;strokeWidth=0.5;movable=1;resizable=1;rotatable=1;deletable=1;editable=1;locked=0;connectable=1;container=0;" parent="wEfOMtyTKLQo5fzBktWI-7" vertex="1">
          <mxGeometry x="221.9985815602837" width="109.95212765957447" height="26.179245283018872" as="geometry" />
        </mxCell>
        <mxCell id="jP2WbbBxQBNUkDRbYnSl-552" value="" style="rounded=0;whiteSpace=wrap;html=1;strokeColor=#222222;fillColor=#222222;strokeWidth=0.5;movable=1;resizable=1;rotatable=1;deletable=1;editable=1;locked=0;connectable=1;container=0;" parent="wEfOMtyTKLQo5fzBktWI-7" vertex="1">
          <mxGeometry x="225.14007092198585" y="3.1415094339622627" width="101.57482269503546" height="19.89622641509434" as="geometry" />
        </mxCell>
        <mxCell id="jP2WbbBxQBNUkDRbYnSl-553" value="" style="rounded=1;whiteSpace=wrap;html=1;strokeColor=#222222;rotation=0;fillColor=#60a917;fontColor=#ffffff;movable=1;resizable=1;rotatable=1;deletable=1;editable=1;locked=0;connectable=1;container=0;direction=south;strokeWidth=0.1;" parent="wEfOMtyTKLQo5fzBktWI-7" vertex="1">
          <mxGeometry x="327.76205673758864" y="20.943396226415096" width="3.141489361702128" height="4.188679245283019" as="geometry" />
        </mxCell>
        <mxCell id="jP2WbbBxQBNUkDRbYnSl-554" value="" style="rounded=1;whiteSpace=wrap;html=1;strokeColor=#222222;rotation=0;fillColor=#0050ef;fontColor=#ffffff;movable=1;resizable=1;rotatable=1;deletable=1;editable=1;locked=0;connectable=1;container=0;direction=south;strokeWidth=0.1;" parent="wEfOMtyTKLQo5fzBktWI-7" vertex="1">
          <mxGeometry x="327.76205673758864" y="11.518867924528301" width="3.141489361702128" height="4.188679245283019" as="geometry" />
        </mxCell>
        <mxCell id="jP2WbbBxQBNUkDRbYnSl-555" value="" style="rounded=1;whiteSpace=wrap;html=1;strokeColor=none;fillColor=#0050ef;strokeWidth=0.5;fontColor=#ffffff;glass=0;movable=1;resizable=1;rotatable=1;deletable=1;editable=1;locked=0;connectable=1;container=0;" parent="wEfOMtyTKLQo5fzBktWI-7" vertex="1">
          <mxGeometry x="300.5358156028369" y="6.283018867924529" width="8.377304964539007" height="13.613207547169813" as="geometry" />
        </mxCell>
        <mxCell id="jP2WbbBxQBNUkDRbYnSl-556" value="" style="shape=or;whiteSpace=wrap;html=1;fillColor=#0050ef;fontColor=#ffffff;strokeColor=none;movable=1;resizable=1;rotatable=1;deletable=1;editable=1;locked=0;connectable=1;container=0;" parent="wEfOMtyTKLQo5fzBktWI-7" vertex="1">
          <mxGeometry x="307.8659574468085" y="6.283018867924529" width="3.141489361702128" height="13.613207547169813" as="geometry" />
        </mxCell>
        <mxCell id="jP2WbbBxQBNUkDRbYnSl-557" value="" style="sketch=0;html=1;strokeColor=#222222;shadow=0;fillColor=none;verticalAlign=top;labelPosition=center;verticalLabelPosition=bottom;shape=mxgraph.gcp2.a7_power;gradientColor=none;strokeWidth=0.1;movable=1;resizable=1;rotatable=1;deletable=1;editable=1;locked=0;connectable=1;container=0;" parent="wEfOMtyTKLQo5fzBktWI-7" vertex="1">
          <mxGeometry x="327.76205673758864" y="7.330188679245282" width="3.141489361702128" height="3.1415094339622645" as="geometry" />
        </mxCell>
        <mxCell id="jP2WbbBxQBNUkDRbYnSl-558" value="" style="strokeWidth=0.1;html=1;shape=mxgraph.flowchart.database;whiteSpace=wrap;strokeColor=#222222;fillColor=none;movable=1;resizable=1;rotatable=1;deletable=1;editable=1;locked=0;connectable=1;container=0;" parent="wEfOMtyTKLQo5fzBktWI-7" vertex="1">
          <mxGeometry x="327.76205673758864" y="16.754716981132077" width="3.141489361702128" height="3.1415094339622645" as="geometry" />
        </mxCell>
        <mxCell id="jP2WbbBxQBNUkDRbYnSl-559" value="" style="rounded=0;whiteSpace=wrap;html=1;strokeColor=none;fillColor=#333333;strokeWidth=0.5;movable=1;resizable=1;rotatable=1;deletable=1;editable=1;locked=0;connectable=1;container=0;" parent="wEfOMtyTKLQo5fzBktWI-7" vertex="1">
          <mxGeometry x="225.14007092198585" y="3.1415094339622627" width="80.63156028368795" height="19.89622641509434" as="geometry" />
        </mxCell>
        <mxCell id="jP2WbbBxQBNUkDRbYnSl-560" value="" style="rounded=0;whiteSpace=wrap;html=1;strokeColor=none;fillColor=#2D2D2D;strokeWidth=0.2;movable=1;resizable=1;rotatable=1;deletable=1;editable=1;locked=0;connectable=1;container=0;" parent="wEfOMtyTKLQo5fzBktWI-7" vertex="1">
          <mxGeometry x="291.1113475177305" y="5.759433962264151" width="4.188652482269504" height="14.660377358490567" as="geometry" />
        </mxCell>
        <mxCell id="jP2WbbBxQBNUkDRbYnSl-561" value="" style="rounded=0;whiteSpace=wrap;html=1;strokeColor=none;fillColor=#2D2D2D;strokeWidth=0.2;movable=1;resizable=1;rotatable=1;deletable=1;editable=1;locked=0;connectable=1;container=0;" parent="wEfOMtyTKLQo5fzBktWI-7" vertex="1">
          <mxGeometry x="231.4230496453901" y="5.759433962264151" width="4.188652482269504" height="14.660377358490567" as="geometry" />
        </mxCell>
        <mxCell id="jP2WbbBxQBNUkDRbYnSl-562" value="" style="rounded=0;whiteSpace=wrap;html=1;strokeColor=none;fillColor=#222222;strokeWidth=0.2;movable=1;resizable=1;rotatable=1;deletable=1;editable=1;locked=0;connectable=1;container=0;" parent="wEfOMtyTKLQo5fzBktWI-7" vertex="1">
          <mxGeometry x="235.6117021276596" y="5.759433962264151" width="55.499645390070924" height="2.0943396226415096" as="geometry" />
        </mxCell>
        <mxCell id="jP2WbbBxQBNUkDRbYnSl-563" value="" style="rounded=0;whiteSpace=wrap;html=1;strokeColor=none;fillColor=#222222;strokeWidth=0.2;movable=1;resizable=1;rotatable=1;deletable=1;editable=1;locked=0;connectable=1;container=0;" parent="wEfOMtyTKLQo5fzBktWI-7" vertex="1">
          <mxGeometry x="235.6117021276596" y="9.94811320754717" width="55.499645390070924" height="2.0943396226415096" as="geometry" />
        </mxCell>
        <mxCell id="jP2WbbBxQBNUkDRbYnSl-564" value="" style="rounded=0;whiteSpace=wrap;html=1;strokeColor=none;fillColor=#222222;strokeWidth=0.2;movable=1;resizable=1;rotatable=1;deletable=1;editable=1;locked=0;connectable=1;container=0;" parent="wEfOMtyTKLQo5fzBktWI-7" vertex="1">
          <mxGeometry x="235.6117021276596" y="14.136792452830193" width="55.499645390070924" height="2.0943396226415096" as="geometry" />
        </mxCell>
        <mxCell id="jP2WbbBxQBNUkDRbYnSl-565" value="" style="rounded=0;whiteSpace=wrap;html=1;strokeColor=none;fillColor=#222222;strokeWidth=0.2;movable=1;resizable=1;rotatable=1;deletable=1;editable=1;locked=0;connectable=1;container=0;" parent="wEfOMtyTKLQo5fzBktWI-7" vertex="1">
          <mxGeometry x="235.6117021276596" y="18.325471698113205" width="55.499645390070924" height="2.0943396226415096" as="geometry" />
        </mxCell>
        <mxCell id="jP2WbbBxQBNUkDRbYnSl-566" value="" style="rounded=0;whiteSpace=wrap;html=1;strokeColor=none;fillColor=#2D2D2D;strokeWidth=0.2;movable=1;resizable=1;rotatable=1;deletable=1;editable=1;locked=0;connectable=1;container=0;" parent="wEfOMtyTKLQo5fzBktWI-7" vertex="1">
          <mxGeometry x="252.36631205673763" y="5.759433962264151" width="2.094326241134752" height="14.660377358490567" as="geometry" />
        </mxCell>
        <mxCell id="jP2WbbBxQBNUkDRbYnSl-567" value="" style="rounded=0;whiteSpace=wrap;html=1;strokeColor=none;fillColor=#2D2D2D;strokeWidth=0.2;movable=1;resizable=1;rotatable=1;deletable=1;editable=1;locked=0;connectable=1;container=0;" parent="wEfOMtyTKLQo5fzBktWI-7" vertex="1">
          <mxGeometry x="272.26241134751774" y="5.759433962264151" width="2.094326241134752" height="14.660377358490567" as="geometry" />
        </mxCell>
        <mxCell id="jP2WbbBxQBNUkDRbYnSl-568" value="" style="rounded=0;whiteSpace=wrap;html=1;strokeColor=none;fillColor=#333333;strokeWidth=0.5;movable=1;resizable=1;rotatable=1;deletable=1;editable=1;locked=0;connectable=1;container=0;" parent="wEfOMtyTKLQo5fzBktWI-7" vertex="1">
          <mxGeometry x="235.6117021276596" y="16.2311320754717" width="55.499645390070924" height="2.0943396226415096" as="geometry" />
        </mxCell>
        <mxCell id="jP2WbbBxQBNUkDRbYnSl-569" value="" style="rounded=0;whiteSpace=wrap;html=1;strokeColor=none;fillColor=#333333;strokeWidth=0.5;movable=1;resizable=1;rotatable=1;deletable=1;editable=1;locked=0;connectable=1;container=0;" parent="wEfOMtyTKLQo5fzBktWI-7" vertex="1">
          <mxGeometry x="235.6117021276596" y="12.04245283018868" width="55.499645390070924" height="2.0943396226415096" as="geometry" />
        </mxCell>
        <mxCell id="jP2WbbBxQBNUkDRbYnSl-570" value="" style="rounded=0;whiteSpace=wrap;html=1;strokeColor=none;fillColor=#333333;strokeWidth=0.5;movable=1;resizable=1;rotatable=1;deletable=1;editable=1;locked=0;connectable=1;container=0;" parent="wEfOMtyTKLQo5fzBktWI-7" vertex="1">
          <mxGeometry x="235.6117021276596" y="7.85377358490566" width="55.499645390070924" height="2.0943396226415096" as="geometry" />
        </mxCell>
        <mxCell id="jP2WbbBxQBNUkDRbYnSl-572" value="" style="rounded=0;whiteSpace=wrap;html=1;strokeColor=none;fillColor=#333333;strokeWidth=0.5;movable=1;resizable=1;rotatable=1;deletable=1;editable=1;locked=0;connectable=1;container=0;" parent="wEfOMtyTKLQo5fzBktWI-7" vertex="1">
          <mxGeometry x="332.99787234042554" width="109.95212765957447" height="26.179245283018872" as="geometry" />
        </mxCell>
        <mxCell id="jP2WbbBxQBNUkDRbYnSl-573" value="" style="rounded=0;whiteSpace=wrap;html=1;strokeColor=#222222;fillColor=#222222;strokeWidth=0.5;movable=1;resizable=1;rotatable=1;deletable=1;editable=1;locked=0;connectable=1;container=0;" parent="wEfOMtyTKLQo5fzBktWI-7" vertex="1">
          <mxGeometry x="336.13936170212764" y="3.1415094339622627" width="101.57482269503546" height="19.89622641509434" as="geometry" />
        </mxCell>
        <mxCell id="jP2WbbBxQBNUkDRbYnSl-574" value="" style="rounded=1;whiteSpace=wrap;html=1;strokeColor=#222222;rotation=0;fillColor=#60a917;fontColor=#ffffff;movable=1;resizable=1;rotatable=1;deletable=1;editable=1;locked=0;connectable=1;container=0;direction=south;strokeWidth=0.1;" parent="wEfOMtyTKLQo5fzBktWI-7" vertex="1">
          <mxGeometry x="438.76134751773054" y="20.943396226415096" width="3.141489361702128" height="4.188679245283019" as="geometry" />
        </mxCell>
        <mxCell id="jP2WbbBxQBNUkDRbYnSl-575" value="" style="rounded=1;whiteSpace=wrap;html=1;strokeColor=#222222;rotation=0;fillColor=#0050ef;fontColor=#ffffff;movable=1;resizable=1;rotatable=1;deletable=1;editable=1;locked=0;connectable=1;container=0;direction=south;strokeWidth=0.1;" parent="wEfOMtyTKLQo5fzBktWI-7" vertex="1">
          <mxGeometry x="438.76134751773054" y="11.518867924528301" width="3.141489361702128" height="4.188679245283019" as="geometry" />
        </mxCell>
        <mxCell id="jP2WbbBxQBNUkDRbYnSl-576" value="" style="rounded=1;whiteSpace=wrap;html=1;strokeColor=none;fillColor=#0050ef;strokeWidth=0.5;fontColor=#ffffff;glass=0;movable=1;resizable=1;rotatable=1;deletable=1;editable=1;locked=0;connectable=1;container=0;" parent="wEfOMtyTKLQo5fzBktWI-7" vertex="1">
          <mxGeometry x="411.5351063829787" y="6.283018867924529" width="8.377304964539007" height="13.613207547169813" as="geometry" />
        </mxCell>
        <mxCell id="jP2WbbBxQBNUkDRbYnSl-577" value="" style="shape=or;whiteSpace=wrap;html=1;fillColor=#0050ef;fontColor=#ffffff;strokeColor=none;movable=1;resizable=1;rotatable=1;deletable=1;editable=1;locked=0;connectable=1;container=0;" parent="wEfOMtyTKLQo5fzBktWI-7" vertex="1">
          <mxGeometry x="418.86524822695037" y="6.283018867924529" width="3.141489361702128" height="13.613207547169813" as="geometry" />
        </mxCell>
        <mxCell id="jP2WbbBxQBNUkDRbYnSl-578" value="" style="sketch=0;html=1;strokeColor=#222222;shadow=0;fillColor=none;verticalAlign=top;labelPosition=center;verticalLabelPosition=bottom;shape=mxgraph.gcp2.a7_power;gradientColor=none;strokeWidth=0.1;movable=1;resizable=1;rotatable=1;deletable=1;editable=1;locked=0;connectable=1;container=0;" parent="wEfOMtyTKLQo5fzBktWI-7" vertex="1">
          <mxGeometry x="438.76134751773054" y="7.330188679245282" width="3.141489361702128" height="3.1415094339622645" as="geometry" />
        </mxCell>
        <mxCell id="jP2WbbBxQBNUkDRbYnSl-579" value="" style="strokeWidth=0.1;html=1;shape=mxgraph.flowchart.database;whiteSpace=wrap;strokeColor=#222222;fillColor=none;movable=1;resizable=1;rotatable=1;deletable=1;editable=1;locked=0;connectable=1;container=0;" parent="wEfOMtyTKLQo5fzBktWI-7" vertex="1">
          <mxGeometry x="438.76134751773054" y="16.754716981132077" width="3.141489361702128" height="3.1415094339622645" as="geometry" />
        </mxCell>
        <mxCell id="jP2WbbBxQBNUkDRbYnSl-580" value="" style="rounded=0;whiteSpace=wrap;html=1;strokeColor=none;fillColor=#333333;strokeWidth=0.5;movable=1;resizable=1;rotatable=1;deletable=1;editable=1;locked=0;connectable=1;container=0;" parent="wEfOMtyTKLQo5fzBktWI-7" vertex="1">
          <mxGeometry x="336.13936170212764" y="3.1415094339622627" width="80.63156028368795" height="19.89622641509434" as="geometry" />
        </mxCell>
        <mxCell id="jP2WbbBxQBNUkDRbYnSl-581" value="" style="rounded=0;whiteSpace=wrap;html=1;strokeColor=none;fillColor=#2D2D2D;strokeWidth=0.2;movable=1;resizable=1;rotatable=1;deletable=1;editable=1;locked=0;connectable=1;container=0;" parent="wEfOMtyTKLQo5fzBktWI-7" vertex="1">
          <mxGeometry x="402.11063829787236" y="5.759433962264151" width="4.188652482269504" height="14.660377358490567" as="geometry" />
        </mxCell>
        <mxCell id="jP2WbbBxQBNUkDRbYnSl-582" value="" style="rounded=0;whiteSpace=wrap;html=1;strokeColor=none;fillColor=#2D2D2D;strokeWidth=0.2;movable=1;resizable=1;rotatable=1;deletable=1;editable=1;locked=0;connectable=1;container=0;" parent="wEfOMtyTKLQo5fzBktWI-7" vertex="1">
          <mxGeometry x="342.42234042553196" y="5.759433962264151" width="4.188652482269504" height="14.660377358490567" as="geometry" />
        </mxCell>
        <mxCell id="jP2WbbBxQBNUkDRbYnSl-583" value="" style="rounded=0;whiteSpace=wrap;html=1;strokeColor=none;fillColor=#222222;strokeWidth=0.2;movable=1;resizable=1;rotatable=1;deletable=1;editable=1;locked=0;connectable=1;container=0;" parent="wEfOMtyTKLQo5fzBktWI-7" vertex="1">
          <mxGeometry x="346.61099290780146" y="5.759433962264151" width="55.499645390070924" height="2.0943396226415096" as="geometry" />
        </mxCell>
        <mxCell id="jP2WbbBxQBNUkDRbYnSl-584" value="" style="rounded=0;whiteSpace=wrap;html=1;strokeColor=none;fillColor=#222222;strokeWidth=0.2;movable=1;resizable=1;rotatable=1;deletable=1;editable=1;locked=0;connectable=1;container=0;" parent="wEfOMtyTKLQo5fzBktWI-7" vertex="1">
          <mxGeometry x="346.61099290780146" y="9.94811320754717" width="55.499645390070924" height="2.0943396226415096" as="geometry" />
        </mxCell>
        <mxCell id="jP2WbbBxQBNUkDRbYnSl-585" value="" style="rounded=0;whiteSpace=wrap;html=1;strokeColor=none;fillColor=#222222;strokeWidth=0.2;movable=1;resizable=1;rotatable=1;deletable=1;editable=1;locked=0;connectable=1;container=0;" parent="wEfOMtyTKLQo5fzBktWI-7" vertex="1">
          <mxGeometry x="346.61099290780146" y="14.136792452830193" width="55.499645390070924" height="2.0943396226415096" as="geometry" />
        </mxCell>
        <mxCell id="jP2WbbBxQBNUkDRbYnSl-586" value="" style="rounded=0;whiteSpace=wrap;html=1;strokeColor=none;fillColor=#222222;strokeWidth=0.2;movable=1;resizable=1;rotatable=1;deletable=1;editable=1;locked=0;connectable=1;container=0;" parent="wEfOMtyTKLQo5fzBktWI-7" vertex="1">
          <mxGeometry x="346.61099290780146" y="18.325471698113205" width="55.499645390070924" height="2.0943396226415096" as="geometry" />
        </mxCell>
        <mxCell id="jP2WbbBxQBNUkDRbYnSl-587" value="" style="rounded=0;whiteSpace=wrap;html=1;strokeColor=none;fillColor=#2D2D2D;strokeWidth=0.2;movable=1;resizable=1;rotatable=1;deletable=1;editable=1;locked=0;connectable=1;container=0;" parent="wEfOMtyTKLQo5fzBktWI-7" vertex="1">
          <mxGeometry x="363.3656028368795" y="5.759433962264151" width="2.094326241134752" height="14.660377358490567" as="geometry" />
        </mxCell>
        <mxCell id="jP2WbbBxQBNUkDRbYnSl-588" value="" style="rounded=0;whiteSpace=wrap;html=1;strokeColor=none;fillColor=#2D2D2D;strokeWidth=0.2;movable=1;resizable=1;rotatable=1;deletable=1;editable=1;locked=0;connectable=1;container=0;" parent="wEfOMtyTKLQo5fzBktWI-7" vertex="1">
          <mxGeometry x="383.2617021276596" y="5.759433962264151" width="2.094326241134752" height="14.660377358490567" as="geometry" />
        </mxCell>
        <mxCell id="jP2WbbBxQBNUkDRbYnSl-589" value="" style="rounded=0;whiteSpace=wrap;html=1;strokeColor=none;fillColor=#333333;strokeWidth=0.5;movable=1;resizable=1;rotatable=1;deletable=1;editable=1;locked=0;connectable=1;container=0;" parent="wEfOMtyTKLQo5fzBktWI-7" vertex="1">
          <mxGeometry x="346.61099290780146" y="16.2311320754717" width="55.499645390070924" height="2.0943396226415096" as="geometry" />
        </mxCell>
        <mxCell id="jP2WbbBxQBNUkDRbYnSl-590" value="" style="rounded=0;whiteSpace=wrap;html=1;strokeColor=none;fillColor=#333333;strokeWidth=0.5;movable=1;resizable=1;rotatable=1;deletable=1;editable=1;locked=0;connectable=1;container=0;" parent="wEfOMtyTKLQo5fzBktWI-7" vertex="1">
          <mxGeometry x="346.61099290780146" y="12.04245283018868" width="55.499645390070924" height="2.0943396226415096" as="geometry" />
        </mxCell>
        <mxCell id="jP2WbbBxQBNUkDRbYnSl-591" value="" style="rounded=0;whiteSpace=wrap;html=1;strokeColor=none;fillColor=#333333;strokeWidth=0.5;movable=1;resizable=1;rotatable=1;deletable=1;editable=1;locked=0;connectable=1;container=0;" parent="wEfOMtyTKLQo5fzBktWI-7" vertex="1">
          <mxGeometry x="346.61099290780146" y="7.85377358490566" width="55.499645390070924" height="2.0943396226415096" as="geometry" />
        </mxCell>
        <mxCell id="jP2WbbBxQBNUkDRbYnSl-678" value="" style="rounded=0;whiteSpace=wrap;html=1;strokeColor=none;fillColor=#333333;strokeWidth=0.5;container=0;movable=1;resizable=1;rotatable=1;deletable=1;editable=1;locked=0;connectable=1;" parent="wEfOMtyTKLQo5fzBktWI-15" vertex="1">
          <mxGeometry x="352.82750000000004" y="1" width="109.95212765957446" height="16.039166666666667" as="geometry" />
        </mxCell>
        <mxCell id="jP2WbbBxQBNUkDRbYnSl-680" value="" style="rounded=0;whiteSpace=wrap;html=1;strokeColor=#333333;fillColor=#222222;strokeWidth=0.5;movable=1;resizable=1;rotatable=1;deletable=1;editable=1;locked=0;connectable=1;container=0;" parent="wEfOMtyTKLQo5fzBktWI-15" vertex="1">
          <mxGeometry x="356.09965584049576" y="5.32" width="7.281597858249963" height="7.408333333333333" as="geometry" />
        </mxCell>
        <mxCell id="jP2WbbBxQBNUkDRbYnSl-682" value="" style="rounded=0;whiteSpace=wrap;html=1;strokeColor=#333333;fillColor=#222222;strokeWidth=0.5;movable=1;resizable=1;rotatable=1;deletable=1;editable=1;locked=0;connectable=1;container=0;" parent="wEfOMtyTKLQo5fzBktWI-15" vertex="1">
          <mxGeometry x="364.1094134845707" y="5.32" width="7.281597858249963" height="7.408333333333333" as="geometry" />
        </mxCell>
        <mxCell id="jP2WbbBxQBNUkDRbYnSl-684" value="" style="rounded=0;whiteSpace=wrap;html=1;strokeColor=#333333;fillColor=#222222;strokeWidth=0.5;movable=1;resizable=1;rotatable=1;deletable=1;editable=1;locked=0;connectable=1;container=0;" parent="wEfOMtyTKLQo5fzBktWI-15" vertex="1">
          <mxGeometry x="372.11917112864563" y="5.32" width="7.281597858249963" height="7.408333333333333" as="geometry" />
        </mxCell>
        <mxCell id="jP2WbbBxQBNUkDRbYnSl-686" value="" style="rounded=0;whiteSpace=wrap;html=1;strokeColor=#333333;fillColor=#222222;strokeWidth=0.5;movable=1;resizable=1;rotatable=1;deletable=1;editable=1;locked=0;connectable=1;container=0;" parent="wEfOMtyTKLQo5fzBktWI-15" vertex="1">
          <mxGeometry x="380.1289287727206" y="5.32" width="7.281597858249963" height="7.408333333333333" as="geometry" />
        </mxCell>
        <mxCell id="jP2WbbBxQBNUkDRbYnSl-688" value="" style="rounded=0;whiteSpace=wrap;html=1;strokeColor=#333333;fillColor=#222222;strokeWidth=0.5;movable=1;resizable=1;rotatable=1;deletable=1;editable=1;locked=0;connectable=1;container=0;" parent="wEfOMtyTKLQo5fzBktWI-15" vertex="1">
          <mxGeometry x="388.13868641679557" y="5.32" width="7.281597858249963" height="7.408333333333333" as="geometry" />
        </mxCell>
        <mxCell id="jP2WbbBxQBNUkDRbYnSl-690" value="" style="rounded=0;whiteSpace=wrap;html=1;strokeColor=#333333;fillColor=#222222;strokeWidth=0.5;movable=1;resizable=1;rotatable=1;deletable=1;editable=1;locked=0;connectable=1;container=0;" parent="wEfOMtyTKLQo5fzBktWI-15" vertex="1">
          <mxGeometry x="396.14844406087053" y="5.32" width="7.281597858249963" height="7.408333333333333" as="geometry" />
        </mxCell>
        <mxCell id="jP2WbbBxQBNUkDRbYnSl-692" value="" style="rounded=0;whiteSpace=wrap;html=1;strokeColor=#333333;fillColor=#222222;strokeWidth=0.5;movable=1;resizable=1;rotatable=1;deletable=1;editable=1;locked=0;connectable=1;container=0;" parent="wEfOMtyTKLQo5fzBktWI-15" vertex="1">
          <mxGeometry x="404.1582017049455" y="5.32" width="7.281597858249963" height="7.408333333333333" as="geometry" />
        </mxCell>
        <mxCell id="jP2WbbBxQBNUkDRbYnSl-694" value="" style="rounded=0;whiteSpace=wrap;html=1;strokeColor=#333333;fillColor=#222222;strokeWidth=0.5;movable=1;resizable=1;rotatable=1;deletable=1;editable=1;locked=0;connectable=1;container=0;" parent="wEfOMtyTKLQo5fzBktWI-15" vertex="1">
          <mxGeometry x="412.16795934902046" y="5.32" width="7.281597858249963" height="7.408333333333333" as="geometry" />
        </mxCell>
        <mxCell id="jP2WbbBxQBNUkDRbYnSl-696" value="" style="rounded=0;whiteSpace=wrap;html=1;strokeColor=#333333;fillColor=#222222;strokeWidth=0.5;movable=1;resizable=1;rotatable=1;deletable=1;editable=1;locked=0;connectable=1;container=0;" parent="wEfOMtyTKLQo5fzBktWI-15" vertex="1">
          <mxGeometry x="420.17771699309543" y="5.32" width="7.281597858249963" height="7.408333333333333" as="geometry" />
        </mxCell>
        <mxCell id="jP2WbbBxQBNUkDRbYnSl-698" value="" style="rounded=0;whiteSpace=wrap;html=1;strokeColor=#333333;fillColor=#222222;strokeWidth=0.5;movable=1;resizable=1;rotatable=1;deletable=1;editable=1;locked=0;connectable=1;container=0;" parent="wEfOMtyTKLQo5fzBktWI-15" vertex="1">
          <mxGeometry x="428.18747463717034" y="5.32" width="7.281597858249963" height="7.408333333333333" as="geometry" />
        </mxCell>
        <mxCell id="jP2WbbBxQBNUkDRbYnSl-700" value="" style="rounded=0;whiteSpace=wrap;html=1;strokeColor=#333333;fillColor=#222222;strokeWidth=0.5;movable=1;resizable=1;rotatable=1;deletable=1;editable=1;locked=0;connectable=1;container=0;" parent="wEfOMtyTKLQo5fzBktWI-15" vertex="1">
          <mxGeometry x="436.1972322812453" y="5.32" width="7.281597858249963" height="7.408333333333333" as="geometry" />
        </mxCell>
        <mxCell id="jP2WbbBxQBNUkDRbYnSl-702" value="" style="rounded=0;whiteSpace=wrap;html=1;strokeColor=#333333;fillColor=#222222;strokeWidth=0.5;movable=1;resizable=1;rotatable=1;deletable=1;editable=1;locked=0;connectable=1;container=0;" parent="wEfOMtyTKLQo5fzBktWI-15" vertex="1">
          <mxGeometry x="444.2069899253203" y="5.32" width="7.281597858249963" height="7.408333333333333" as="geometry" />
        </mxCell>
        <mxCell id="jP2WbbBxQBNUkDRbYnSl-704" value="" style="rounded=0;whiteSpace=wrap;html=1;strokeColor=#333333;fillColor=#222222;strokeWidth=0.5;movable=1;resizable=1;rotatable=1;deletable=1;editable=1;locked=0;connectable=1;container=0;" parent="wEfOMtyTKLQo5fzBktWI-15" vertex="1">
          <mxGeometry x="452.21674756939524" y="5.32" width="7.281597858249963" height="7.408333333333333" as="geometry" />
        </mxCell>
        <mxCell id="jP2WbbBxQBNUkDRbYnSl-707" value="" style="rounded=0;whiteSpace=wrap;html=1;strokeColor=none;fillColor=#333333;strokeWidth=0.5;container=0;movable=1;resizable=1;rotatable=1;deletable=1;editable=1;locked=0;connectable=1;" parent="wEfOMtyTKLQo5fzBktWI-15" vertex="1">
          <mxGeometry x="241.82750000000004" y="1" width="109.95212765957446" height="16.039166666666667" as="geometry" />
        </mxCell>
        <mxCell id="jP2WbbBxQBNUkDRbYnSl-709" value="" style="rounded=0;whiteSpace=wrap;html=1;strokeColor=#333333;fillColor=#222222;strokeWidth=0.5;movable=1;resizable=1;rotatable=1;deletable=1;editable=1;locked=0;connectable=1;container=0;" parent="wEfOMtyTKLQo5fzBktWI-15" vertex="1">
          <mxGeometry x="245.09965584049573" y="5.32" width="7.281597858249963" height="7.408333333333333" as="geometry" />
        </mxCell>
        <mxCell id="jP2WbbBxQBNUkDRbYnSl-711" value="" style="rounded=0;whiteSpace=wrap;html=1;strokeColor=#333333;fillColor=#222222;strokeWidth=0.5;movable=1;resizable=1;rotatable=1;deletable=1;editable=1;locked=0;connectable=1;container=0;" parent="wEfOMtyTKLQo5fzBktWI-15" vertex="1">
          <mxGeometry x="253.1094134845707" y="5.32" width="7.281597858249963" height="7.408333333333333" as="geometry" />
        </mxCell>
        <mxCell id="jP2WbbBxQBNUkDRbYnSl-713" value="" style="rounded=0;whiteSpace=wrap;html=1;strokeColor=#333333;fillColor=#222222;strokeWidth=0.5;movable=1;resizable=1;rotatable=1;deletable=1;editable=1;locked=0;connectable=1;container=0;" parent="wEfOMtyTKLQo5fzBktWI-15" vertex="1">
          <mxGeometry x="261.11917112864563" y="5.32" width="7.281597858249963" height="7.408333333333333" as="geometry" />
        </mxCell>
        <mxCell id="jP2WbbBxQBNUkDRbYnSl-715" value="" style="rounded=0;whiteSpace=wrap;html=1;strokeColor=#333333;fillColor=#222222;strokeWidth=0.5;movable=1;resizable=1;rotatable=1;deletable=1;editable=1;locked=0;connectable=1;container=0;" parent="wEfOMtyTKLQo5fzBktWI-15" vertex="1">
          <mxGeometry x="269.1289287727206" y="5.32" width="7.281597858249963" height="7.408333333333333" as="geometry" />
        </mxCell>
        <mxCell id="jP2WbbBxQBNUkDRbYnSl-717" value="" style="rounded=0;whiteSpace=wrap;html=1;strokeColor=#333333;fillColor=#222222;strokeWidth=0.5;movable=1;resizable=1;rotatable=1;deletable=1;editable=1;locked=0;connectable=1;container=0;" parent="wEfOMtyTKLQo5fzBktWI-15" vertex="1">
          <mxGeometry x="277.13868641679557" y="5.32" width="7.281597858249963" height="7.408333333333333" as="geometry" />
        </mxCell>
        <mxCell id="jP2WbbBxQBNUkDRbYnSl-719" value="" style="rounded=0;whiteSpace=wrap;html=1;strokeColor=#333333;fillColor=#222222;strokeWidth=0.5;movable=1;resizable=1;rotatable=1;deletable=1;editable=1;locked=0;connectable=1;container=0;" parent="wEfOMtyTKLQo5fzBktWI-15" vertex="1">
          <mxGeometry x="285.14844406087053" y="5.32" width="7.281597858249963" height="7.408333333333333" as="geometry" />
        </mxCell>
        <mxCell id="jP2WbbBxQBNUkDRbYnSl-721" value="" style="rounded=0;whiteSpace=wrap;html=1;strokeColor=#333333;fillColor=#222222;strokeWidth=0.5;movable=1;resizable=1;rotatable=1;deletable=1;editable=1;locked=0;connectable=1;container=0;" parent="wEfOMtyTKLQo5fzBktWI-15" vertex="1">
          <mxGeometry x="293.1582017049455" y="5.32" width="7.281597858249963" height="7.408333333333333" as="geometry" />
        </mxCell>
        <mxCell id="jP2WbbBxQBNUkDRbYnSl-723" value="" style="rounded=0;whiteSpace=wrap;html=1;strokeColor=#333333;fillColor=#222222;strokeWidth=0.5;movable=1;resizable=1;rotatable=1;deletable=1;editable=1;locked=0;connectable=1;container=0;" parent="wEfOMtyTKLQo5fzBktWI-15" vertex="1">
          <mxGeometry x="301.16795934902046" y="5.32" width="7.281597858249963" height="7.408333333333333" as="geometry" />
        </mxCell>
        <mxCell id="jP2WbbBxQBNUkDRbYnSl-725" value="" style="rounded=0;whiteSpace=wrap;html=1;strokeColor=#333333;fillColor=#222222;strokeWidth=0.5;movable=1;resizable=1;rotatable=1;deletable=1;editable=1;locked=0;connectable=1;container=0;" parent="wEfOMtyTKLQo5fzBktWI-15" vertex="1">
          <mxGeometry x="309.17771699309543" y="5.32" width="7.281597858249963" height="7.408333333333333" as="geometry" />
        </mxCell>
        <mxCell id="jP2WbbBxQBNUkDRbYnSl-727" value="" style="rounded=0;whiteSpace=wrap;html=1;strokeColor=#333333;fillColor=#222222;strokeWidth=0.5;movable=1;resizable=1;rotatable=1;deletable=1;editable=1;locked=0;connectable=1;container=0;" parent="wEfOMtyTKLQo5fzBktWI-15" vertex="1">
          <mxGeometry x="317.18747463717034" y="5.32" width="7.281597858249963" height="7.408333333333333" as="geometry" />
        </mxCell>
        <mxCell id="jP2WbbBxQBNUkDRbYnSl-729" value="" style="rounded=0;whiteSpace=wrap;html=1;strokeColor=#333333;fillColor=#222222;strokeWidth=0.5;movable=1;resizable=1;rotatable=1;deletable=1;editable=1;locked=0;connectable=1;container=0;" parent="wEfOMtyTKLQo5fzBktWI-15" vertex="1">
          <mxGeometry x="325.1972322812453" y="5.32" width="7.281597858249963" height="7.408333333333333" as="geometry" />
        </mxCell>
        <mxCell id="jP2WbbBxQBNUkDRbYnSl-731" value="" style="rounded=0;whiteSpace=wrap;html=1;strokeColor=#333333;fillColor=#222222;strokeWidth=0.5;movable=1;resizable=1;rotatable=1;deletable=1;editable=1;locked=0;connectable=1;container=0;" parent="wEfOMtyTKLQo5fzBktWI-15" vertex="1">
          <mxGeometry x="333.2069899253203" y="5.32" width="7.281597858249963" height="7.408333333333333" as="geometry" />
        </mxCell>
        <mxCell id="jP2WbbBxQBNUkDRbYnSl-733" value="" style="rounded=0;whiteSpace=wrap;html=1;strokeColor=#333333;fillColor=#222222;strokeWidth=0.5;movable=1;resizable=1;rotatable=1;deletable=1;editable=1;locked=0;connectable=1;container=0;" parent="wEfOMtyTKLQo5fzBktWI-15" vertex="1">
          <mxGeometry x="341.21674756939524" y="5.32" width="7.281597858249963" height="7.408333333333333" as="geometry" />
        </mxCell>
        <mxCell id="wEfOMtyTKLQo5fzBktWI-13" value="" style="group" vertex="1" connectable="0" parent="wEfOMtyTKLQo5fzBktWI-15">
          <mxGeometry x="19.83" width="136" height="17.04" as="geometry" />
        </mxCell>
        <mxCell id="jP2WbbBxQBNUkDRbYnSl-735" value="" style="rounded=0;whiteSpace=wrap;html=1;strokeColor=none;fillColor=#333333;strokeWidth=0.5;container=0;movable=1;resizable=1;rotatable=1;deletable=1;editable=1;locked=0;connectable=1;" parent="wEfOMtyTKLQo5fzBktWI-13" vertex="1">
          <mxGeometry width="136" height="17.04" as="geometry" />
        </mxCell>
        <mxCell id="jP2WbbBxQBNUkDRbYnSl-736" value="" style="rounded=0;whiteSpace=wrap;html=1;strokeColor=#333333;fillColor=#222222;strokeWidth=0.5;movable=1;resizable=1;rotatable=1;deletable=1;editable=1;locked=0;connectable=1;container=0;" parent="wEfOMtyTKLQo5fzBktWI-13" vertex="1">
          <mxGeometry x="4.363636363635699" y="0.7408695652173927" width="7.272727272727271" height="7.408695652173913" as="geometry" />
        </mxCell>
        <mxCell id="jP2WbbBxQBNUkDRbYnSl-737" value="" style="rounded=0;whiteSpace=wrap;html=1;strokeColor=#333333;fillColor=#222222;strokeWidth=0.5;movable=1;resizable=1;rotatable=1;deletable=1;editable=1;locked=0;connectable=1;container=0;" parent="wEfOMtyTKLQo5fzBktWI-13" vertex="1">
          <mxGeometry x="4.363636363635699" y="8.890434782608695" width="7.272727272727271" height="7.408695652173913" as="geometry" />
        </mxCell>
        <mxCell id="jP2WbbBxQBNUkDRbYnSl-738" value="" style="rounded=0;whiteSpace=wrap;html=1;strokeColor=#333333;fillColor=#222222;strokeWidth=0.5;movable=1;resizable=1;rotatable=1;deletable=1;editable=1;locked=0;connectable=1;container=0;" parent="wEfOMtyTKLQo5fzBktWI-13" vertex="1">
          <mxGeometry x="12.363636363635699" y="0.7408695652173927" width="7.272727272727271" height="7.408695652173913" as="geometry" />
        </mxCell>
        <mxCell id="jP2WbbBxQBNUkDRbYnSl-739" value="" style="rounded=0;whiteSpace=wrap;html=1;strokeColor=#333333;fillColor=#222222;strokeWidth=0.5;movable=1;resizable=1;rotatable=1;deletable=1;editable=1;locked=0;connectable=1;container=0;" parent="wEfOMtyTKLQo5fzBktWI-13" vertex="1">
          <mxGeometry x="12.363636363635699" y="8.890434782608695" width="7.272727272727271" height="7.408695652173913" as="geometry" />
        </mxCell>
        <mxCell id="jP2WbbBxQBNUkDRbYnSl-740" value="" style="rounded=0;whiteSpace=wrap;html=1;strokeColor=#333333;fillColor=#222222;strokeWidth=0.5;movable=1;resizable=1;rotatable=1;deletable=1;editable=1;locked=0;connectable=1;container=0;" parent="wEfOMtyTKLQo5fzBktWI-13" vertex="1">
          <mxGeometry x="20.363636363635685" y="0.7408695652173927" width="7.272727272727271" height="7.408695652173913" as="geometry" />
        </mxCell>
        <mxCell id="jP2WbbBxQBNUkDRbYnSl-741" value="" style="rounded=0;whiteSpace=wrap;html=1;strokeColor=#333333;fillColor=#222222;strokeWidth=0.5;movable=1;resizable=1;rotatable=1;deletable=1;editable=1;locked=0;connectable=1;container=0;" parent="wEfOMtyTKLQo5fzBktWI-13" vertex="1">
          <mxGeometry x="20.363636363635685" y="8.890434782608695" width="7.272727272727271" height="7.408695652173913" as="geometry" />
        </mxCell>
        <mxCell id="jP2WbbBxQBNUkDRbYnSl-742" value="" style="rounded=0;whiteSpace=wrap;html=1;strokeColor=#333333;fillColor=#222222;strokeWidth=0.5;movable=1;resizable=1;rotatable=1;deletable=1;editable=1;locked=0;connectable=1;container=0;" parent="wEfOMtyTKLQo5fzBktWI-13" vertex="1">
          <mxGeometry x="28.363636363635692" y="0.7408695652173927" width="7.272727272727271" height="7.408695652173913" as="geometry" />
        </mxCell>
        <mxCell id="jP2WbbBxQBNUkDRbYnSl-743" value="" style="rounded=0;whiteSpace=wrap;html=1;strokeColor=#333333;fillColor=#222222;strokeWidth=0.5;movable=1;resizable=1;rotatable=1;deletable=1;editable=1;locked=0;connectable=1;container=0;" parent="wEfOMtyTKLQo5fzBktWI-13" vertex="1">
          <mxGeometry x="28.363636363635692" y="8.890434782608695" width="7.272727272727271" height="7.408695652173913" as="geometry" />
        </mxCell>
        <mxCell id="jP2WbbBxQBNUkDRbYnSl-744" value="" style="rounded=0;whiteSpace=wrap;html=1;strokeColor=#333333;fillColor=#222222;strokeWidth=0.5;movable=1;resizable=1;rotatable=1;deletable=1;editable=1;locked=0;connectable=1;container=0;" parent="wEfOMtyTKLQo5fzBktWI-13" vertex="1">
          <mxGeometry x="36.3636363636357" y="0.7408695652173927" width="7.272727272727271" height="7.408695652173913" as="geometry" />
        </mxCell>
        <mxCell id="jP2WbbBxQBNUkDRbYnSl-745" value="" style="rounded=0;whiteSpace=wrap;html=1;strokeColor=#333333;fillColor=#222222;strokeWidth=0.5;movable=1;resizable=1;rotatable=1;deletable=1;editable=1;locked=0;connectable=1;container=0;" parent="wEfOMtyTKLQo5fzBktWI-13" vertex="1">
          <mxGeometry x="36.3636363636357" y="8.890434782608695" width="7.272727272727271" height="7.408695652173913" as="geometry" />
        </mxCell>
        <mxCell id="jP2WbbBxQBNUkDRbYnSl-746" value="" style="rounded=0;whiteSpace=wrap;html=1;strokeColor=#333333;fillColor=#222222;strokeWidth=0.5;movable=1;resizable=1;rotatable=1;deletable=1;editable=1;locked=0;connectable=1;container=0;" parent="wEfOMtyTKLQo5fzBktWI-13" vertex="1">
          <mxGeometry x="44.36363636363569" y="0.7408695652173927" width="7.272727272727271" height="7.408695652173913" as="geometry" />
        </mxCell>
        <mxCell id="jP2WbbBxQBNUkDRbYnSl-747" value="" style="rounded=0;whiteSpace=wrap;html=1;strokeColor=#333333;fillColor=#222222;strokeWidth=0.5;movable=1;resizable=1;rotatable=1;deletable=1;editable=1;locked=0;connectable=1;container=0;" parent="wEfOMtyTKLQo5fzBktWI-13" vertex="1">
          <mxGeometry x="44.36363636363569" y="8.890434782608695" width="7.272727272727271" height="7.408695652173913" as="geometry" />
        </mxCell>
        <mxCell id="jP2WbbBxQBNUkDRbYnSl-748" value="" style="rounded=0;whiteSpace=wrap;html=1;strokeColor=#333333;fillColor=#222222;strokeWidth=0.5;movable=1;resizable=1;rotatable=1;deletable=1;editable=1;locked=0;connectable=1;container=0;" parent="wEfOMtyTKLQo5fzBktWI-13" vertex="1">
          <mxGeometry x="52.363636363635706" y="0.7408695652173927" width="7.272727272727271" height="7.408695652173913" as="geometry" />
        </mxCell>
        <mxCell id="jP2WbbBxQBNUkDRbYnSl-749" value="" style="rounded=0;whiteSpace=wrap;html=1;strokeColor=#333333;fillColor=#222222;strokeWidth=0.5;movable=1;resizable=1;rotatable=1;deletable=1;editable=1;locked=0;connectable=1;container=0;" parent="wEfOMtyTKLQo5fzBktWI-13" vertex="1">
          <mxGeometry x="52.363636363635706" y="8.890434782608695" width="7.272727272727271" height="7.408695652173913" as="geometry" />
        </mxCell>
        <mxCell id="jP2WbbBxQBNUkDRbYnSl-750" value="" style="rounded=0;whiteSpace=wrap;html=1;strokeColor=#333333;fillColor=#222222;strokeWidth=0.5;movable=1;resizable=1;rotatable=1;deletable=1;editable=1;locked=0;connectable=1;container=0;" parent="wEfOMtyTKLQo5fzBktWI-13" vertex="1">
          <mxGeometry x="60.36363636363568" y="0.7408695652173927" width="7.272727272727271" height="7.408695652173913" as="geometry" />
        </mxCell>
        <mxCell id="jP2WbbBxQBNUkDRbYnSl-751" value="" style="rounded=0;whiteSpace=wrap;html=1;strokeColor=#333333;fillColor=#222222;strokeWidth=0.5;movable=1;resizable=1;rotatable=1;deletable=1;editable=1;locked=0;connectable=1;container=0;" parent="wEfOMtyTKLQo5fzBktWI-13" vertex="1">
          <mxGeometry x="60.36363636363568" y="8.890434782608695" width="7.272727272727271" height="7.408695652173913" as="geometry" />
        </mxCell>
        <mxCell id="jP2WbbBxQBNUkDRbYnSl-752" value="" style="rounded=0;whiteSpace=wrap;html=1;strokeColor=#333333;fillColor=#222222;strokeWidth=0.5;movable=1;resizable=1;rotatable=1;deletable=1;editable=1;locked=0;connectable=1;container=0;" parent="wEfOMtyTKLQo5fzBktWI-13" vertex="1">
          <mxGeometry x="68.36363636363568" y="0.7408695652173927" width="7.272727272727271" height="7.408695652173913" as="geometry" />
        </mxCell>
        <mxCell id="jP2WbbBxQBNUkDRbYnSl-753" value="" style="rounded=0;whiteSpace=wrap;html=1;strokeColor=#333333;fillColor=#222222;strokeWidth=0.5;movable=1;resizable=1;rotatable=1;deletable=1;editable=1;locked=0;connectable=1;container=0;" parent="wEfOMtyTKLQo5fzBktWI-13" vertex="1">
          <mxGeometry x="68.36363636363568" y="8.890434782608695" width="7.272727272727271" height="7.408695652173913" as="geometry" />
        </mxCell>
        <mxCell id="jP2WbbBxQBNUkDRbYnSl-754" value="" style="rounded=0;whiteSpace=wrap;html=1;strokeColor=#333333;fillColor=#222222;strokeWidth=0.5;movable=1;resizable=1;rotatable=1;deletable=1;editable=1;locked=0;connectable=1;container=0;" parent="wEfOMtyTKLQo5fzBktWI-13" vertex="1">
          <mxGeometry x="76.36363636363569" y="0.7408695652173927" width="7.272727272727271" height="7.408695652173913" as="geometry" />
        </mxCell>
        <mxCell id="jP2WbbBxQBNUkDRbYnSl-755" value="" style="rounded=0;whiteSpace=wrap;html=1;strokeColor=#333333;fillColor=#222222;strokeWidth=0.5;movable=1;resizable=1;rotatable=1;deletable=1;editable=1;locked=0;connectable=1;container=0;" parent="wEfOMtyTKLQo5fzBktWI-13" vertex="1">
          <mxGeometry x="76.36363636363569" y="8.890434782608695" width="7.272727272727271" height="7.408695652173913" as="geometry" />
        </mxCell>
        <mxCell id="jP2WbbBxQBNUkDRbYnSl-756" value="" style="rounded=0;whiteSpace=wrap;html=1;strokeColor=#333333;fillColor=#222222;strokeWidth=0.5;movable=1;resizable=1;rotatable=1;deletable=1;editable=1;locked=0;connectable=1;container=0;" parent="wEfOMtyTKLQo5fzBktWI-13" vertex="1">
          <mxGeometry x="84.36363636363569" y="0.7408695652173927" width="7.272727272727271" height="7.408695652173913" as="geometry" />
        </mxCell>
        <mxCell id="jP2WbbBxQBNUkDRbYnSl-757" value="" style="rounded=0;whiteSpace=wrap;html=1;strokeColor=#333333;fillColor=#222222;strokeWidth=0.5;movable=1;resizable=1;rotatable=1;deletable=1;editable=1;locked=0;connectable=1;container=0;" parent="wEfOMtyTKLQo5fzBktWI-13" vertex="1">
          <mxGeometry x="84.36363636363569" y="8.890434782608695" width="7.272727272727271" height="7.408695652173913" as="geometry" />
        </mxCell>
        <mxCell id="jP2WbbBxQBNUkDRbYnSl-758" value="" style="rounded=0;whiteSpace=wrap;html=1;strokeColor=#333333;fillColor=#222222;strokeWidth=0.5;movable=1;resizable=1;rotatable=1;deletable=1;editable=1;locked=0;connectable=1;container=0;" parent="wEfOMtyTKLQo5fzBktWI-13" vertex="1">
          <mxGeometry x="92.36363636363569" y="0.7408695652173927" width="7.272727272727271" height="7.408695652173913" as="geometry" />
        </mxCell>
        <mxCell id="jP2WbbBxQBNUkDRbYnSl-759" value="" style="rounded=0;whiteSpace=wrap;html=1;strokeColor=#333333;fillColor=#222222;strokeWidth=0.5;movable=1;resizable=1;rotatable=1;deletable=1;editable=1;locked=0;connectable=1;container=0;" parent="wEfOMtyTKLQo5fzBktWI-13" vertex="1">
          <mxGeometry x="92.36363636363569" y="8.890434782608695" width="7.272727272727271" height="7.408695652173913" as="geometry" />
        </mxCell>
        <mxCell id="jP2WbbBxQBNUkDRbYnSl-760" value="" style="rounded=0;whiteSpace=wrap;html=1;strokeColor=#333333;fillColor=#222222;strokeWidth=0.5;movable=1;resizable=1;rotatable=1;deletable=1;editable=1;locked=0;connectable=1;container=0;" parent="wEfOMtyTKLQo5fzBktWI-13" vertex="1">
          <mxGeometry x="100.36363636363568" y="0.7408695652173927" width="7.272727272727271" height="7.408695652173913" as="geometry" />
        </mxCell>
        <mxCell id="jP2WbbBxQBNUkDRbYnSl-761" value="" style="rounded=0;whiteSpace=wrap;html=1;strokeColor=#333333;fillColor=#222222;strokeWidth=0.5;movable=1;resizable=1;rotatable=1;deletable=1;editable=1;locked=0;connectable=1;container=0;" parent="wEfOMtyTKLQo5fzBktWI-13" vertex="1">
          <mxGeometry x="100.36363636363568" y="8.890434782608695" width="7.272727272727271" height="7.408695652173913" as="geometry" />
        </mxCell>
        <mxCell id="jP2WbbBxQBNUkDRbYnSl-762" value="" style="rounded=0;whiteSpace=wrap;html=1;strokeColor=#333333;fillColor=#222222;strokeWidth=0.5;movable=1;resizable=1;rotatable=1;deletable=1;editable=1;locked=0;connectable=1;container=0;" parent="wEfOMtyTKLQo5fzBktWI-13" vertex="1">
          <mxGeometry x="108.36363636363568" y="0.7408695652173927" width="7.272727272727271" height="7.408695652173913" as="geometry" />
        </mxCell>
        <mxCell id="jP2WbbBxQBNUkDRbYnSl-763" value="" style="rounded=0;whiteSpace=wrap;html=1;strokeColor=#333333;fillColor=#222222;strokeWidth=0.5;movable=1;resizable=1;rotatable=1;deletable=1;editable=1;locked=0;connectable=1;container=0;" parent="wEfOMtyTKLQo5fzBktWI-13" vertex="1">
          <mxGeometry x="108.21818181818126" y="8.890434782608695" width="7.272727272727271" height="7.408695652173913" as="geometry" />
        </mxCell>
        <mxCell id="jP2WbbBxQBNUkDRbYnSl-764" value="" style="rounded=0;whiteSpace=wrap;html=1;strokeColor=#333333;fillColor=#222222;strokeWidth=0.5;movable=1;resizable=1;rotatable=1;deletable=1;editable=1;locked=0;connectable=1;container=0;" parent="wEfOMtyTKLQo5fzBktWI-13" vertex="1">
          <mxGeometry x="116.36363636363568" y="0.7408695652173927" width="7.272727272727271" height="7.408695652173913" as="geometry" />
        </mxCell>
        <mxCell id="jP2WbbBxQBNUkDRbYnSl-765" value="" style="rounded=0;whiteSpace=wrap;html=1;strokeColor=#333333;fillColor=#222222;strokeWidth=0.5;movable=1;resizable=1;rotatable=1;deletable=1;editable=1;locked=0;connectable=1;container=0;" parent="wEfOMtyTKLQo5fzBktWI-13" vertex="1">
          <mxGeometry x="116.36363636363568" y="8.890434782608695" width="7.272727272727271" height="7.408695652173913" as="geometry" />
        </mxCell>
        <mxCell id="jP2WbbBxQBNUkDRbYnSl-766" value="" style="rounded=0;whiteSpace=wrap;html=1;strokeColor=#333333;fillColor=#222222;strokeWidth=0.5;movable=1;resizable=1;rotatable=1;deletable=1;editable=1;locked=0;connectable=1;container=0;" parent="wEfOMtyTKLQo5fzBktWI-13" vertex="1">
          <mxGeometry x="124.36363636363565" y="0.7408695652173927" width="7.272727272727271" height="7.408695652173913" as="geometry" />
        </mxCell>
        <mxCell id="jP2WbbBxQBNUkDRbYnSl-767" value="" style="rounded=0;whiteSpace=wrap;html=1;strokeColor=#333333;fillColor=#222222;strokeWidth=0.5;movable=1;resizable=1;rotatable=1;deletable=1;editable=1;locked=0;connectable=1;container=0;" parent="wEfOMtyTKLQo5fzBktWI-13" vertex="1">
          <mxGeometry x="124.36363636363565" y="8.890434782608695" width="7.272727272727271" height="7.408695652173913" as="geometry" />
        </mxCell>
        <mxCell id="jP2WbbBxQBNUkDRbYnSl-595" value="" style="rounded=0;whiteSpace=wrap;html=1;strokeColor=none;fillColor=#333333;strokeWidth=0.5;container=0;movable=1;resizable=1;rotatable=1;deletable=1;editable=1;locked=0;connectable=1;" parent="wEfOMtyTKLQo5fzBktWI-15" vertex="1">
          <mxGeometry x="156.77999999999997" y="1" width="84" height="16" as="geometry" />
        </mxCell>
        <mxCell id="jP2WbbBxQBNUkDRbYnSl-596" value="" style="rounded=0;whiteSpace=wrap;html=1;strokeColor=#001DBC;fillColor=#333333;strokeWidth=0.2;container=0;fontColor=#ffffff;movable=1;resizable=1;rotatable=1;deletable=1;editable=1;locked=0;connectable=1;" parent="wEfOMtyTKLQo5fzBktWI-15" vertex="1">
          <mxGeometry x="158.27999999999997" y="2.2173913043478226" width="81" height="13.304347826086957" as="geometry" />
        </mxCell>
        <mxCell id="jP2WbbBxQBNUkDRbYnSl-597" value="" style="ellipse;whiteSpace=wrap;html=1;strokeColor=none;fillColor=#60a917;fontColor=#ffffff;movable=1;resizable=1;rotatable=1;deletable=1;editable=1;locked=0;connectable=1;container=0;" parent="wEfOMtyTKLQo5fzBktWI-15" vertex="1">
          <mxGeometry x="174.77999999999997" y="9.608695652173914" width="4.5" height="4.434782608695652" as="geometry" />
        </mxCell>
        <mxCell id="jP2WbbBxQBNUkDRbYnSl-598" value="" style="ellipse;whiteSpace=wrap;html=1;strokeColor=none;fillColor=#0050ef;fontColor=#ffffff;movable=1;resizable=1;rotatable=1;deletable=1;editable=1;locked=0;connectable=1;container=0;" parent="wEfOMtyTKLQo5fzBktWI-15" vertex="1">
          <mxGeometry x="180.02999999999997" y="9.608695652173914" width="4.5" height="4.434782608695652" as="geometry" />
        </mxCell>
        <mxCell id="jP2WbbBxQBNUkDRbYnSl-599" value="" style="ellipse;whiteSpace=wrap;html=1;strokeColor=none;fillColor=#0050ef;fontColor=#ffffff;movable=1;resizable=1;rotatable=1;deletable=1;editable=1;locked=0;connectable=1;container=0;" parent="wEfOMtyTKLQo5fzBktWI-15" vertex="1">
          <mxGeometry x="185.27999999999997" y="9.608695652173914" width="4.5" height="4.434782608695652" as="geometry" />
        </mxCell>
        <mxCell id="jP2WbbBxQBNUkDRbYnSl-600" value="" style="ellipse;whiteSpace=wrap;html=1;strokeColor=none;fillColor=#0050ef;fontColor=#ffffff;movable=1;resizable=1;rotatable=1;deletable=1;editable=1;locked=0;connectable=1;container=0;" parent="wEfOMtyTKLQo5fzBktWI-15" vertex="1">
          <mxGeometry x="190.52999999999997" y="9.608695652173914" width="4.5" height="4.434782608695652" as="geometry" />
        </mxCell>
        <mxCell id="jP2WbbBxQBNUkDRbYnSl-601" value="" style="ellipse;whiteSpace=wrap;html=1;strokeColor=none;fillColor=#a20025;fontColor=#ffffff;movable=1;resizable=1;rotatable=1;deletable=1;editable=1;locked=0;connectable=1;container=0;" parent="wEfOMtyTKLQo5fzBktWI-15" vertex="1">
          <mxGeometry x="201.02999999999997" y="9.608695652173914" width="4.5" height="4.434782608695652" as="geometry" />
        </mxCell>
        <mxCell id="jP2WbbBxQBNUkDRbYnSl-602" value="" style="ellipse;whiteSpace=wrap;html=1;strokeColor=none;fillColor=#0050ef;fontColor=#ffffff;movable=1;resizable=1;rotatable=1;deletable=1;editable=1;locked=0;connectable=1;container=0;" parent="wEfOMtyTKLQo5fzBktWI-15" vertex="1">
          <mxGeometry x="195.77999999999997" y="9.608695652173914" width="4.5" height="4.434782608695652" as="geometry" />
        </mxCell>
        <mxCell id="jP2WbbBxQBNUkDRbYnSl-603" value="" style="ellipse;whiteSpace=wrap;html=1;strokeColor=none;fillColor=#0050ef;fontColor=#ffffff;movable=1;resizable=1;rotatable=1;deletable=1;editable=1;locked=0;connectable=1;container=0;" parent="wEfOMtyTKLQo5fzBktWI-15" vertex="1">
          <mxGeometry x="167.27999999999997" y="8.130434782608695" width="6" height="5.913043478260869" as="geometry" />
        </mxCell>
        <mxCell id="jP2WbbBxQBNUkDRbYnSl-604" value="" style="ellipse;whiteSpace=wrap;html=1;strokeColor=none;fillColor=#0050ef;fontColor=#ffffff;movable=1;resizable=1;rotatable=1;deletable=1;editable=1;locked=0;connectable=1;container=0;" parent="wEfOMtyTKLQo5fzBktWI-15" vertex="1">
          <mxGeometry x="159.77999999999997" y="8.130434782608695" width="6" height="5.913043478260869" as="geometry" />
        </mxCell>
        <mxCell id="jP2WbbBxQBNUkDRbYnSl-605" value="" style="sketch=0;pointerEvents=1;shadow=0;dashed=0;html=1;strokeColor=none;labelPosition=center;verticalLabelPosition=bottom;verticalAlign=top;align=center;fillColor=#FFFFFF;shape=mxgraph.mscae.enterprise.usb;movable=1;resizable=1;rotatable=1;deletable=1;editable=1;locked=0;connectable=1;container=0;" parent="wEfOMtyTKLQo5fzBktWI-15" vertex="1">
          <mxGeometry x="211.0799999999997" y="3.6956521739130435" width="6.51" height="2.9565217391304346" as="geometry" />
        </mxCell>
        <mxCell id="jP2WbbBxQBNUkDRbYnSl-606" value="" style="sketch=0;pointerEvents=1;shadow=0;dashed=0;html=1;strokeColor=none;labelPosition=center;verticalLabelPosition=bottom;verticalAlign=top;align=center;fillColor=#FFFFFF;shape=mxgraph.mscae.enterprise.usb;movable=1;resizable=1;rotatable=1;deletable=1;editable=1;locked=0;connectable=1;container=0;" parent="wEfOMtyTKLQo5fzBktWI-15" vertex="1">
          <mxGeometry x="227.0399999999995" y="3.6956521739130435" width="6.51" height="2.9565217391304346" as="geometry" />
        </mxCell>
        <mxCell id="jP2WbbBxQBNUkDRbYnSl-607" value="" style="sketch=0;html=1;strokeColor=none;shadow=0;fillColor=#FFFFFF;verticalAlign=top;labelPosition=center;verticalLabelPosition=bottom;shape=mxgraph.gcp2.a7_power;gradientColor=none;movable=1;resizable=1;rotatable=1;deletable=1;editable=1;locked=0;connectable=1;container=0;" parent="wEfOMtyTKLQo5fzBktWI-15" vertex="1">
          <mxGeometry x="161.27999999999997" y="3.6956521739130435" width="3" height="2.9565217391304346" as="geometry" />
        </mxCell>
        <mxCell id="jP2WbbBxQBNUkDRbYnSl-608" value="" style="verticalLabelPosition=bottom;shadow=0;dashed=0;align=center;html=1;verticalAlign=top;shape=mxgraph.electrical.radio.loop_antenna;strokeColor=default;fillColor=none;strokeWidth=0.1;rotation=-180;movable=1;resizable=1;rotatable=1;deletable=1;editable=1;locked=0;connectable=1;container=0;" parent="wEfOMtyTKLQo5fzBktWI-15" vertex="1">
          <mxGeometry x="168.78000000000065" y="3.6956521739130435" width="3" height="2.9565217391304346" as="geometry" />
        </mxCell>
        <mxCell id="jP2WbbBxQBNUkDRbYnSl-609" value="" style="strokeWidth=0.1;html=1;shape=mxgraph.flowchart.database;whiteSpace=wrap;strokeColor=default;fillColor=none;movable=1;resizable=1;rotatable=1;deletable=1;editable=1;locked=0;connectable=1;container=0;" parent="wEfOMtyTKLQo5fzBktWI-15" vertex="1">
          <mxGeometry x="180.77999999999997" y="3.6956521739130435" width="3" height="2.9565217391304346" as="geometry" />
        </mxCell>
        <mxCell id="jP2WbbBxQBNUkDRbYnSl-610" value="" style="sketch=0;pointerEvents=1;shadow=0;dashed=0;html=1;strokeColor=none;fillColor=#FFFFFF;labelPosition=center;verticalLabelPosition=bottom;verticalAlign=top;align=center;outlineConnect=0;shape=mxgraph.vvd.infrastructure;movable=1;resizable=1;rotatable=1;deletable=1;editable=1;locked=0;connectable=1;container=0;" parent="wEfOMtyTKLQo5fzBktWI-15" vertex="1">
          <mxGeometry x="186.02999999999997" y="3.6956521739130435" width="3" height="2.9565217391304346" as="geometry" />
        </mxCell>
        <mxCell id="jP2WbbBxQBNUkDRbYnSl-611" value="" style="sketch=0;pointerEvents=1;shadow=0;dashed=0;html=1;strokeColor=none;fillColor=#FFFFFF;labelPosition=center;verticalLabelPosition=bottom;verticalAlign=top;align=center;outlineConnect=0;shape=mxgraph.vvd.infrastructure;movable=1;resizable=1;rotatable=1;deletable=1;editable=1;locked=0;connectable=1;container=0;" parent="wEfOMtyTKLQo5fzBktWI-15" vertex="1">
          <mxGeometry x="191.27999999999997" y="3.6956521739130435" width="3" height="2.9565217391304346" as="geometry" />
        </mxCell>
        <mxCell id="jP2WbbBxQBNUkDRbYnSl-612" value="" style="sketch=0;pointerEvents=1;shadow=0;dashed=0;html=1;strokeColor=none;fillColor=#FFFFFF;labelPosition=center;verticalLabelPosition=bottom;verticalAlign=top;align=center;outlineConnect=0;shape=mxgraph.vvd.infrastructure;movable=1;resizable=1;rotatable=1;deletable=1;editable=1;locked=0;connectable=1;container=0;" parent="wEfOMtyTKLQo5fzBktWI-15" vertex="1">
          <mxGeometry x="196.52999999999997" y="3.6956521739130435" width="3" height="2.9565217391304346" as="geometry" />
        </mxCell>
        <mxCell id="jP2WbbBxQBNUkDRbYnSl-613" value="" style="triangle;whiteSpace=wrap;html=1;rotation=-90;fillColor=none;strokeWidth=0.1;movable=1;resizable=1;rotatable=1;deletable=1;editable=1;locked=0;connectable=1;container=0;" parent="wEfOMtyTKLQo5fzBktWI-15" vertex="1">
          <mxGeometry x="201.77999999999997" y="3.6956521739130435" width="3" height="2.9565217391304346" as="geometry" />
        </mxCell>
        <mxCell id="jP2WbbBxQBNUkDRbYnSl-614" value="" style="sketch=0;html=1;strokeColor=default;shadow=0;fillColor=none;verticalAlign=top;labelPosition=center;verticalLabelPosition=bottom;shape=mxgraph.gcp2.a7_power;gradientColor=none;strokeWidth=0.1;movable=1;resizable=1;rotatable=1;deletable=1;editable=1;locked=0;connectable=1;container=0;" parent="wEfOMtyTKLQo5fzBktWI-15" vertex="1">
          <mxGeometry x="175.52999999999997" y="3.6956521739130435" width="3" height="2.9565217391304346" as="geometry" />
        </mxCell>
        <mxCell id="jP2WbbBxQBNUkDRbYnSl-615" value="" style="rounded=0;whiteSpace=wrap;html=1;strokeColor=#aaaaaa;fillColor=#222222;strokeWidth=0.1;movable=1;resizable=1;rotatable=1;deletable=1;editable=1;locked=0;connectable=1;container=0;" parent="wEfOMtyTKLQo5fzBktWI-15" vertex="1">
          <mxGeometry x="222.77999999999997" y="8.130434782608695" width="14.999999999999998" height="5.913043478260869" as="geometry" />
        </mxCell>
        <mxCell id="jP2WbbBxQBNUkDRbYnSl-616" value="" style="rounded=0;whiteSpace=wrap;html=1;strokeColor=none;fillColor=#0050ef;strokeWidth=0.5;fontColor=#ffffff;movable=1;resizable=1;rotatable=1;deletable=1;editable=1;locked=0;connectable=1;container=0;" parent="wEfOMtyTKLQo5fzBktWI-15" vertex="1">
          <mxGeometry x="224.27999999999997" y="9.608695652173914" width="12" height="1.4782608695652173" as="geometry" />
        </mxCell>
        <mxCell id="jP2WbbBxQBNUkDRbYnSl-617" value="" style="rounded=0;whiteSpace=wrap;html=1;strokeColor=#aaaaaa;fillColor=#222222;strokeWidth=0.1;movable=1;resizable=1;rotatable=1;deletable=1;editable=1;locked=0;connectable=1;container=0;" parent="wEfOMtyTKLQo5fzBktWI-15" vertex="1">
          <mxGeometry x="206.82000000000016" y="8.130434782608695" width="14.999999999999998" height="5.913043478260869" as="geometry" />
        </mxCell>
        <mxCell id="jP2WbbBxQBNUkDRbYnSl-618" value="" style="rounded=0;whiteSpace=wrap;html=1;strokeColor=none;fillColor=#0050ef;strokeWidth=0.5;fontColor=#ffffff;movable=1;resizable=1;rotatable=1;deletable=1;editable=1;locked=0;connectable=1;container=0;" parent="wEfOMtyTKLQo5fzBktWI-15" vertex="1">
          <mxGeometry x="208.32000000000016" y="9.608695652173914" width="12" height="1.4782608695652173" as="geometry" />
        </mxCell>
      </root>
    </mxGraphModel>
  </diagram>
</mxfile>
